# xmcd
#
# Track frame offsets:
#	150
#	17694
#	31382
#	46302
#	60397
#	71720
#	94185
#	106261
#	118548
#	132796
#	147657
#	164814
#	176175
#	193650
#
# Disc length: 2960 seconds
#
# Revision: 1
# Processed by: cddbd v1.4b42PL1 Copyright (c) Steve Scherf et al.
# Submitted via: audiograbber 1.80
#
DISCID=cc0b8e0e
DTITLE=Swamp Things - All Tanked Up
DYEAR=1900
DGENRE=
TTITLE0=Boomhauer
TTITLE1=Flip Flop and Fly
TTITLE2=You Can't Get That Stuff No More
TTITLE3=Long Tall Mama
TTITLE4=Juke
TTITLE5=Bumblebee
TTITLE6=Don't Shoot Me Baby (radio edit)
TTITLE7=Rolling and Tumbling
TTITLE8=My Babe
TTITLE9=Pinetops Boogie
TTITLE10=Love Her With a Feeling
TTITLE11=Blues in the Bottle
TTITLE12=Folsom Prison
TTITLE13=St Louis Blues
EXTD=Recorded at Mockingbird Studios, Brighton, UK. 11 and 12 May 2000.\nALICD02 
EXTD=\nSwamp Things are:-\nSlim Lightfoot (vocals, guitar, dobro]\nLafayette Lo
EXTD=uis (string bass]\nChicken-King Schultz (drums, washboard]\nHurricane Boy 
EXTD=Floyd (harps]\nHonky Pinetops (piano, organ)
EXTT0=
EXTT1=
EXTT2=
EXTT3=
EXTT4=
EXTT5=
EXTT6=
EXTT7=
EXTT8=
EXTT9=
EXTT10=
EXTT11=
EXTT12=
EXTT13=
PLAYORDER=
